<?xml version="1.0" encoding="UTF-8"?>
<svg id="Ebene_1" xmlns="http://www.w3.org/2000/svg" version="1.1" viewBox="0 0 444.6 295">
  <!-- Generator: Adobe Illustrator 30.0.0, SVG Export Plug-In . SVG Version: 2.1.1 Build 123)  -->
  <defs>
    <style>
      .st0 {
        fill: #fff;
      }
    </style>
  </defs>
  <g>
    <path class="st0" d="M222.3,0c-49,0-88.7,39.7-88.7,88.7s39.7,88.7,88.7,88.7,88.7-39.7,88.7-88.7S271.3,0,222.3,0ZM280.3,146.7c-14.8,14.8-35.3,24-58,24-22.6,0-43.2-9.2-58-24-14.8-14.8-24-35.3-24-58,0-22.6,9.2-43.2,24-58,14.8-14.8,35.3-24,58-24,22.6,0,43.2,9.2,58,24,14.8,14.8,24,35.3,24,58,0,22.6-9.2,43.2-24,58Z"/>
    <g>
      <path class="st0" d="M243.3,91.8h0c-2.8-4-4.4-9.1-4.4-14.1,0-.7,0-1.4,0-2h0c0,0,0-.2,0-.3,0-.9-.4-1.8-1-2.4h0s0,0,0,0h0s0,0,0,0c-.6-.6-1.5-1-2.4-1,0,0-.2,0-.3,0h0c-.7,0-1.4,0-2,0-4.9,0-10.1-1.6-14.1-4.4h0c-.6-.4-1.3-.6-2-.6-.3,0-.6,0-.9.1h0s0,0,0,0h0s0,0,0,0c-.9.2-1.8,1-2.2,1.9h0s0,0,0,0c-2.3,5.1-6.7,9.5-11.8,11.8h0c-.9.4-1.6,1.3-1.9,2.2h0s0,0,0,0h0s0,0,0,0c0,.3-.1.6-.1.9,0,.7.2,1.4.6,2h0c2.8,4,4.4,9.1,4.4,14.1,0,.7,0,1.4,0,2h0c0,0,0,.2,0,.3,0,.9.4,1.8,1,2.4h0s0,0,0,0h0s0,0,0,0c.6.6,1.5,1,2.4,1,0,0,.2,0,.3,0h0c.7,0,1.4,0,2,0,4.9,0,10.1,1.6,14.1,4.4h0c.6.4,1.3.6,2,.6.3,0,.6,0,.9-.1h0s0,0,0,0h0s0,0,0,0c.9-.2,1.8-1,2.2-1.9h0c2.3-5.1,6.7-9.5,11.8-11.8h0s0,0,0,0h0c.9-.4,1.6-1.3,1.9-2.2h0s0,0,0,0h0s0,0,0,0c0-.3.1-.6.1-.9,0-.7-.2-1.4-.6-2Z"/>
      <path class="st0" d="M222.3,13.1c-41.7,0-75.6,33.8-75.6,75.6s33.8,75.6,75.6,75.6,75.6-33.8,75.6-75.6S264.1,13.1,222.3,13.1ZM272.9,105h0c2.9,3.8,4.4,9,4.4,14.1,0,5.4-1.6,10.8-4.7,14.7h0c-.5.9-1.7,1.4-2.9,1.4-.7,0-1.4-.2-1.9-.6h0c-.9-.5-1.4-1.7-1.4-2.9,0-.7.2-1.4.6-1.9h0c2.2-2.9,3.4-6.9,3.4-10.7,0-2-.3-4-1-5.9h0c-1.7-5.3-6.9-10.1-12.3-11.4h0c-1.4-.4-3-.6-4.5-.6-4.3,0-8.8,1.6-11.9,4.3h0c-3.9,3.1-6.3,8.6-6.3,13.7,0,.7,0,1.3.1,1.9h0c0,.1,0,.3,0,.4,0,1.4-1.2,3-2.6,3.3h0s-.5.1-.5.1h0c-.3,0-.5.1-.8.1-1.3,0-2.8-.9-3.2-2.1h0c-2.2-5.2-7.6-9.5-13.2-10.4h0c-1-.2-2.1-.3-3.2-.3-4.7,0-9.7,2-12.8,5.3h0c-3.3,3.2-5.3,8.1-5.3,12.8,0,1.1.1,2.2.3,3.2h0c.9,5.6,5.2,11,10.4,13.2h0c1.2.4,2.1,1.9,2.1,3.3,0,.5,0,.9-.3,1.3h0s0,0,0,0h0s0,0,0,0c-.4,1.2-1.9,2-3.3,2-.5,0-.9,0-1.3-.3h0c-8.4-3.2-14.9-13.2-14.9-22.4,0-.8,0-1.6.2-2.4h0c0,0,0-.2,0-.3,0-.8-.4-1.7-1-2.3h0c-.6-.6-1.5-1-2.3-1,0,0-.2,0-.3,0h0c-.8.1-1.6.2-2.4.2-9.1,0-19.1-6.5-22.4-14.9h0c-.2-.4-.3-.8-.3-1.3,0-1.3.8-2.8,2-3.3h0s0,0,0,0h0s0,0,0,0c.4-.2.8-.3,1.3-.3,1.3,0,2.8.8,3.3,2.1h0c2.2,5.2,7.6,9.5,13.2,10.4h0c1,.2,2.1.3,3.2.3,4.7,0,9.7-2,12.8-5.3h0c3.3-3.2,5.3-8.1,5.3-12.8,0-1.1-.1-2.2-.3-3.2h0c-.9-5.6-5.2-11-10.4-13.2h0c-1.2-.4-2.1-1.9-2.1-3.2,0-.3,0-.6.1-.8h0s.1-.5.1-.5h0c.3-1.4,1.8-2.6,3.3-2.6.1,0,.3,0,.4,0h0c.6,0,1.3.1,1.9.1,5.1,0,10.5-2.5,13.7-6.3h0c2.8-3.1,4.3-7.6,4.3-11.9,0-1.5-.2-3.1-.6-4.5h0c-1.3-5.5-6-10.6-11.4-12.3h0c-1.8-.7-3.8-1-5.9-1-3.9,0-7.8,1.2-10.7,3.4h0c-.5.4-1.2.6-1.9.6-1.1,0-2.3-.5-2.9-1.4h0c-.4-.5-.6-1.2-.6-1.9,0-1.1.5-2.3,1.4-2.9h0c3.9-3.1,9.3-4.7,14.7-4.7,5.2,0,10.3,1.5,14.1,4.4h0c.5.4,1.2.6,1.9.6.3,0,.6,0,.8-.1h0c.9-.2,1.7-.9,2.1-1.7h0c3.4-8.2,13.3-14.3,22.3-14.3,1,0,1.9,0,2.9.2h0c1.6,0,3.1,1.7,3.1,3.3,0,.1,0,.3,0,.4h0,0s0,0,0,0h0c0,1.6-1.7,3.1-3.3,3.1-.2,0-.3,0-.5,0h0c-.6,0-1.3-.1-1.9-.1-5.1,0-10.5,2.5-13.7,6.3h0c-2.8,3.1-4.3,7.6-4.3,11.9,0,1.5.2,3.1.6,4.5h0c1.3,5.5,6,10.6,11.4,12.3h0c1.8.7,3.8,1,5.9,1,3.9,0,7.8-1.2,10.7-3.4h0c.5-.4,1.2-.6,2-.6.9,0,1.9.3,2.5,1h0l.4.4h0c.7.6,1,1.5,1,2.5,0,.7-.2,1.5-.6,2h0c-2.2,2.9-3.4,6.9-3.4,10.7,0,2,.3,4,1,5.9h0c1.7,5.3,6.9,10.1,12.3,11.4h0c1.4.4,3,.6,4.5.6,4.3,0,8.8-1.6,11.9-4.3h0c3.9-3.1,6.3-8.6,6.3-13.7,0-.7,0-1.3-.1-1.9h0c0-.1,0-.3,0-.5,0-1.6,1.5-3.3,3.1-3.3h0s0,0,0,0h0s0,0,0,0c.1,0,.3,0,.4,0,1.6,0,3.3,1.5,3.3,3.1h0c.1.9.2,1.9.2,2.9,0,9-6.2,18.9-14.3,22.3h0c-.8.4-1.5,1.2-1.7,2.1h0c0,.3-.1.5-.1.8,0,.7.2,1.3.6,1.9Z"/>
    </g>
  </g>
  <g>
    <path class="st0" d="M.6,227.5h56.5l.5,17h-2.4c-1.2-5.3-2.7-8.8-4.5-10.4s-5.6-2.4-11.4-2.4h-5.6v51.2c0,3.9.6,6.2,1.8,7.2,1.2.9,3.8,1.5,7.9,1.8v1.9H14.4v-1.9c4.2-.3,6.9-1,7.9-2.1,1-1.1,1.6-3.8,1.6-8.1v-50h-5.6c-5.5,0-9.3.8-11.3,2.4-2,1.6-3.5,5.1-4.5,10.4H0l.6-17Z"/>
    <path class="st0" d="M63.8,291.8c3.8-.4,6.2-1.1,7.2-2.2.9-1.1,1.4-3.8,1.4-7.9v-43.3c0-3.5-.5-5.8-1.6-6.9-1.1-1.1-3.4-1.8-7-2.1v-1.9h27.7c5.8,0,10.6.7,14.4,2.2,7.3,2.8,10.9,7.8,10.9,15.3s-1.6,8.8-4.9,11.5c-3.2,2.7-7.6,4.4-13.2,5.3l20.6,25.4c1.3,1.6,2.5,2.7,3.8,3.4,1.3.7,2.9,1.2,4.9,1.4v1.9h-16.1l-25-30.8-4.4.2v19.7c0,3.7.6,6,1.7,7,1.1,1,3.6,1.6,7.3,2v1.9h-27.8v-1.9ZM98,257.2c5.3-2.2,8-6.3,8-12.3s-2.4-9.7-7.1-11.8c-2.5-1.1-5.9-1.7-10.1-1.7s-4.6.2-5.2.6c-.6.4-1,1.4-1,2.9v24.6c7.2-.3,12.3-1,15.4-2.2Z"/>
    <path class="st0" d="M131,291.8c4.1-.3,6.7-.9,7.9-1.8,1.2-.9,1.8-3.3,1.8-7.2v-44.5c0-3.7-.6-6-1.8-7.1-1.2-1.1-3.8-1.7-7.9-1.9v-1.9h29.6v1.9c-4.1.2-6.7.8-7.9,1.9-1.2,1.1-1.8,3.4-1.8,7.1v44.5c0,3.9.6,6.2,1.8,7.2,1.2.9,3.8,1.5,7.9,1.8v1.9h-29.6v-1.9Z"/>
    <path class="st0" d="M166.8,291.8c4.1-.4,6.8-1.4,8-2.8,1.2-1.4,1.8-4.8,1.8-10.1v-44.1l-1.4-1.6c-1.5-1.7-2.7-2.8-3.7-3.2s-2.6-.6-4.6-.7v-1.9h17.1l38.6,47.8v-33.2c0-5.5-.8-9-2.4-10.7-1.1-1.1-3.5-1.8-7.1-2.1v-1.9h23.5v1.9c-3.8.4-6.3,1.3-7.6,2.8s-1.9,4.8-1.9,10.1v52.6h-1.7l-44.2-54.8v38.9c0,5.5.8,9,2.4,10.7,1,1.1,3.4,1.8,7,2.2v1.9h-23.5v-1.9Z"/>
    <path class="st0" d="M242.5,291.8c4.1-.3,6.7-.9,7.9-1.8,1.2-.9,1.8-3.3,1.8-7.2v-44.5c0-3.7-.6-6-1.8-7.1-1.2-1.1-3.8-1.7-7.9-1.9v-1.9h29.6v1.9c-4.1.2-6.7.8-7.9,1.9-1.2,1.1-1.8,3.4-1.8,7.1v44.5c0,3.9.6,6.2,1.8,7.2,1.2.9,3.8,1.5,7.9,1.8v1.9h-29.6v-1.9Z"/>
    <path class="st0" d="M277.2,227.5h56.5l.5,17h-2.4c-1.2-5.3-2.7-8.8-4.5-10.4s-5.6-2.4-11.4-2.4h-5.6v51.2c0,3.9.6,6.2,1.8,7.2,1.2.9,3.8,1.5,7.9,1.8v1.9h-29.2v-1.9c4.2-.3,6.9-1,7.9-2.1,1-1.1,1.6-3.8,1.6-8.1v-50h-5.6c-5.5,0-9.3.8-11.3,2.4-2,1.6-3.5,5.1-4.5,10.4h-2.4l.6-17Z"/>
    <path class="st0" d="M327.8,293.7v-1.9c2.6-.3,4.5-1.3,5.8-2.9s3.5-6.1,6.6-13.5l20.8-49.1h2l24.9,56.7c1.7,3.8,3,6.1,4,7,1,.9,2.7,1.5,5,1.8v1.9h-25.4v-1.9c2.9-.3,4.8-.6,5.7-.9.8-.4,1.3-1.3,1.3-2.7s-.2-1.3-.5-2.6c-.3-1.2-.8-2.5-1.4-3.9l-4-9.6h-26.4c-2.6,6.5-4.1,10.5-4.7,12-.5,1.4-.8,2.6-.8,3.4,0,1.7.7,2.9,2,3.5.8.4,2.4.7,4.8.9v1.9h-19.8ZM370.9,268l-11.5-27.5-11.5,27.5h23Z"/>
    <path class="st0" d="M402,273.6c1.7,4.5,3.7,8.1,5.9,10.7,4,4.7,8.9,7,14.8,7s5.9-1,8.3-3c2.3-2,3.5-4.8,3.5-8.4s-1.2-6.1-3.5-8.5c-1.5-1.5-4.7-3.8-9.6-6.9l-8.5-5.3c-2.6-1.6-4.6-3.3-6.1-4.9-2.8-3.2-4.2-6.6-4.2-10.4s1.7-9.2,5-12.6c3.4-3.4,7.8-5,13.3-5s5,.6,8.2,1.7c3.2,1.1,5,1.7,5.5,1.7,1.2,0,2.1-.3,2.6-.9.5-.6.8-1.4,1.1-2.5h2.1l2.2,21.3h-2.4c-1.6-6.4-4.2-10.9-7.8-13.4-3.6-2.5-7.2-3.8-10.7-3.8s-5.1.8-7.2,2.4c-2,1.6-3.1,3.8-3.1,6.7s.8,4.8,2.3,6.6c1.6,1.9,4,3.8,7.3,5.8l8.8,5.4c5.5,3.4,9.4,6.5,11.6,9.3,2.2,2.9,3.3,6.2,3.3,10.2s-2,9.6-5.9,13.1-9,5.3-15.2,5.3-6.3-.6-9.7-1.8-5.3-1.8-5.8-1.8c-1.2,0-2,.4-2.4,1.1-.4.7-.7,1.5-.8,2.3h-2.2l-3-21.3h2.3Z"/>
  </g>
</svg>