<?xml version="1.0" encoding="UTF-8"?>
<svg id="Ebene_1" xmlns="http://www.w3.org/2000/svg" version="1.1" viewBox="0 0 1579.3 690.3">
  <!-- Generator: Adobe Illustrator 29.8.1, SVG Export Plug-In . SVG Version: 2.1.1 Build 2)  -->
  <defs>
    <style>
      .st0 {
        fill: #fff;
      }
    </style>
  </defs>
  <g id="wLsc3L">
    <g>
      <path class="st0" d="M215,685v-5c12.5.9,27.6-.8,31.7-14.8s2-18.4,2.3-24.7c1.9-46.6,2-102.5,0-149.1s-.6-12.6-1.2-17.8c-2.2-20.2-14.7-22-32.8-21.7l-.7-3.9,3-1c48.9,5.3,166.8-20.5,182.3,46.8,9.4,41-19.8,68.7-57.7,75.7l63,86c13.2,14.9,26.8,22.4,46.9,24.6v4.9c.1,0-63.4,0-63.4,0l-82-111h-23.5c-.9,22.1-2,45.4-1,67.5s.7,19.9,3,26,4.1,6.7,7.4,8.6,9.1,3.8,10.2,3.8h14.5l-1,5h-101ZM282,563c40.9,2.8,82.4-11.3,79-59.5-2.8-39.9-46.6-54.2-79-38v97.5Z"/>
      <path class="st0" d="M790.8.3l12.7-.3c147.5,6.3,235.5,166.1,156.9,294-71.5,116.2-242,119.8-319.6,7.8-86.7-125.1-1-294.9,150-301.4ZM781.8,16.3c-115.8,9-190.3,131.6-148.3,239.7,49.5,127.5,222.3,152.4,304.9,42.9,92.8-123-3.4-294.5-156.6-282.6Z"/>
      <path class="st0" d="M628.5,447l146,178c1,0,1.5-4.3,1.5-5.5,2.7-41.7-2.1-86.1,0-128.1-2.4-10.7,1.4-27-8.5-34.5-7.1-5.4-17-5.3-25.5-5v-5h82c-.3,1.8,1.9,4.1-.6,4.9-16.5-.7-30.2,2.1-32.2,20.8-3.1,71.3,0,142.9-.5,214.3,0,3.2-6,2.7-7.6.6l-157-190.5v163.5c0,1,2.2,8,2.8,9.2,5.1,10,20.5,11,30.2,10.3v5h-82l-1-5h14.5c.6,0,7.1-2.3,8.2-2.8,5.2-2.5,7.9-5.9,9.6-11.4,2.1-6.6,2.5-18.9,2.7-26.3,2.1-52.8-1.7-107.1,0-160-7.9-10.9-18.5-19.8-31.9-23.1s-14.2-1.3-15.1-1.9c-2.1-1.4.6-5.4,0-7.5h64.5Z"/>
      <path class="st0" d="M1424,608h5c2.8,38.7,26.6,67.4,66.5,70,51.3,3.4,73.3-46.6,28.4-77.4-31.2-21.4-97.6-44.1-101.9-87.1-5.2-52.3,42.9-79.8,90-69,8.9,2,27.8,11.7,34.5,11.5,7.3-.2,11.6-7.2,11.6-14h5s0,82,0,82h-5c-1.7-35.1-25-65.4-61.5-68-37.9-2.7-64.7,34.8-32.5,63.5,33.7,29.9,110.2,46.9,115,98,4.5,48.2-39.4,75.5-83.5,72.5-17.5-1.2-32.7-9.2-49.3-12.7-11.9-2.5-16.4-.2-17.2,12.7h-5s0-82,0-82Z"/>
      <path class="st0" d="M1143,685v-4.9c15.8-2.8,20.9-7.9,28.5-21.1l95.4-216.4h8.2s89.4,216.4,89.4,216.4c6.2,12.9,17,20.2,31.5,21v5c0,0-94.9,0-94.9,0v-5c9.2.2,24.4-3.2,24.9-14.6.7-16.6-16.9-43.1-20.8-59.8h-93.2c-5.5,13.5-13.1,27.1-18,40.9-8.8,25-3.4,31.5,23,33.6v5c0,0-73.9,0-73.9,0ZM1218,592h81l-39.5-95-41.5,95Z"/>
      <path class="st0" d="M196.5,447l1.6,3.4,1,52.6h-5.9c-2.3-15.9-7.3-31.1-23.2-37.5s-10.6-3.5-13.5-3.5h-40l-1.6,3.4c2,58.3-2.4,118,0,176.1.3,7.1.8,22.3,3.8,28.2,5.1,10,20.3,10.9,30.2,10.3l1,4.9H48l-1-5h14.5c3.7,0,12.1-4.5,14.5-7.5,6-7.3,4.4-18.4,4.9-27.1,3.6-59.7-.6-120.1,1.1-180l-1.6-3.4h-40c-12.8,0-25.6,10.3-30.3,21.7-2.5,6.1-2.9,12.8-4.3,19.2H0c0,.1,1-55.9,1-55.9h195.5Z"/>
      <path class="st0" d="M1156.5,447l1.6,3.4,1,52.6h-5.9c-2.3-15.9-7.3-31.1-23.2-37.5s-10.6-3.5-13.5-3.5h-40l-1.6,3.4c2,58.3-2.4,118,0,176.1.3,7.1.8,22.3,3.8,28.2,5.1,10,20.3,10.9,30.2,10.3l1,4.9h-102l-1-5h14.5c3.7,0,12.1-4.5,14.5-7.5,6-7.3,4.4-18.4,4.9-27.1,3.6-59.7-.6-120.1,1.1-180l-1.6-3.4h-40c-12.8,0-25.6,10.3-30.3,21.7-2.5,6.1-2.9,12.8-4.3,19.2h-5.9c0,.1,1-55.9,1-55.9h195.5Z"/>
      <path class="st0" d="M939,447l.9,3.4-1.6,1.5c-8.2,0-17.2-.2-24.3,4.7-9.9,6.8-7.5,19.7-8.1,29.9-2.8,48.8-3,107.1-1,156.1s.7,19.1,2.6,24.4c4,11.5,20.9,13.9,31.5,13v5h-102l1.1-4.9c18,.3,30.6-1.5,32.8-21.8.6-5.5.9-13.2,1.2-18.8,1.8-46,1.5-99,0-145.1-.2-7.5-.4-22.3-2.3-28.7-3.6-12.2-21-14.7-31.7-13.8v-5h101Z"/>
      <path class="st0" d="M559,447v5c-8.4-.2-17.7-.4-24.9,4.6-9.7,6.7-7.5,18.9-8.1,28.9-3,48.6-2.9,107.1-1,156.1.3,6.5.6,20,2.6,25.4,4,11.5,20.9,13.9,31.5,13v5h-100.5c-4.5-7.5,7.5-4.5,12.7-5.3,13.1-1.8,18.3-8.7,19.6-21.4.6-5.2.9-12.5,1.2-17.8,1.9-46.2,1.5-99.7,0-146.1s-.4-23.3-2.5-29.4c-4-11.5-20.9-13.9-31.5-13v-5h101Z"/>
      <path class="st0" d="M793.8,29.3c133.8-2.9,214.9,148.7,136,258-73.7,102.1-230.7,84.3-281-30.6-45.9-105,30.8-224.9,145-227.4ZM813.8,48.3c-21.7,2.9-29,15.6-40.3,30.7s-11.3,1.4-18.1-1.8c-10.7-5.1-23.9-6-35.4-3.7s-28.8,9-21.4,18.5c5.1,6.7,11.3-.3,16.5-2.5,58.3-24.6,82.4,70.8,17.4,76.5s-10.3-2.7-12.2,3.7c-2.9,9.8,6.4,10.7,12.3,15.3,40.3,31.7-7.3,94.4-48.4,63.4-7.8-5.9-8.7-11.6-13.6-17.4-5.4-6.3-14.2-1.2-12,7,3.9,14.7,26,29.4,40.5,31.5s16.7-.8,19.5,2.5,1.2,13.3,1.8,18.2c1.5,12.1,10.7,27.3,20.3,34.7s19.3,12.6,21.3,1.3c1.3-7-7.2-8.2-11.3-11.3-14-10.4-19.2-27.1-14.8-43.8,8.2-30.9,49.8-38.5,69.3-13.7s5.5,15.2,15.3,12.3,3.4-8.1,3.7-11.2c6.1-65.3,96.4-42.9,78.1,13-2.1,6.3-10,12.9-5.1,19s14.6-5.8,16.8-11.3c6.1-15.4,5.3-30.9-1.6-45.9s-6.1-6.3-5-11.6,8-6.6,11.8-9.3c13.8-9.9,27.9-34.2,22.6-51.5-2.2-7.2-11.7-6.4-13.3.8s.9,13.1-3,22c-19.9,45.7-91.2,20.4-73.9-29.9,2.1-6,10-13.8,3.7-19.2s-10.5,1.1-15,3c-37.2,15.6-71.8-21.6-52.2-56.2s17.4-17.9,27.8-19.2,16.2,1.7,18.2-4.8c3.3-10.9-13.6-9.9-20-9Z"/>
      <path class="st0" d="M785.7,144.2c4.9-.9,7.9,3.4,11.6,5,5.4,2.4,12.3,5.2,18.2,5.8s18-2.8,19.4,6.6-.6,13.7,2.3,22.7,9.8,15.8,8.3,20.8c-1.2,4-13.9,10-18.1,13.9s-12.9,20.1-17.2,20.9-16.1-7.8-22.2-9.4-21.3-.6-24.6-3.4-2.4-19.3-4.2-25.8-9.8-16.9-8.9-21.3,11.8-9.4,16.6-13.5c3.4-2.9,6.8-7,9.4-10.6s4-10.8,9.3-11.8Z"/>
    </g>
  </g>
</svg>