<?xml version="1.0" encoding="UTF-8"?>
<svg xmlns="http://www.w3.org/2000/svg" viewBox="133.6 0 177.4 177.4">
  <defs>
    <style>
      .st0 { fill: #fff; }
    </style>
  </defs>
  <rect width="177.4" height="177.4" x="133.6" fill="#09090b"/>
  <g>
    <path class="st0" d="M222.3,0c-49,0-88.7,39.7-88.7,88.7s39.7,88.7,88.7,88.7,88.7-39.7,88.7-88.7S271.3,0,222.3,0ZM280.3,146.7c-14.8,14.8-35.3,24-58,24-22.6,0-43.2-9.2-58-24-14.8-14.8-24-35.3-24-58,0-22.6,9.2-43.2,24-58,14.8-14.8,35.3-24,58-24,22.6,0,43.2,9.2,58,24,14.8,14.8,24,35.3,24,58,0,22.6-9.2,43.2-24,58Z"/>
    <g>
      <path class="st0" d="M243.3,91.8h0c-2.8-4-4.4-9.1-4.4-14.1,0-.7,0-1.4,0-2h0c0,0,0-.2,0-.3,0-.9-.4-1.8-1-2.4h0s0,0,0,0h0s0,0,0,0c-.6-.6-1.5-1-2.4-1,0,0-.2,0-.3,0h0c-.7,0-1.4,0-2,0-4.9,0-10.1-1.6-14.1-4.4h0c-.6-.4-1.3-.6-2-.6-.3,0-.6,0-.9.1h0s0,0,0,0h0s0,0,0,0c-.9.2-1.8,1-2.2,1.9h0s0,0,0,0c-2.3,5.1-6.7,9.5-11.8,11.8h0c-.9.4-1.6,1.3-1.9,2.2h0s0,0,0,0h0s0,0,0,0c0,.3-.1.6-.1.9,0,.7.2,1.4.6,2h0c2.8,4,4.4,9.1,4.4,14.1,0,.7,0,1.4,0,2h0c0,0,0,.2,0,.3,0,.9.4,1.8,1,2.4h0s0,0,0,0h0s0,0,0,0c.6.6,1.5,1,2.4,1,0,0,.2,0,.3,0h0c.7,0,1.4,0,2,0,4.9,0,10.1,1.6,14.1,4.4h0c.6.4,1.3.6,2,.6.3,0,.6,0,.9-.1h0s0,0,0,0h0s0,0,0,0c.9-.2,1.8-1,2.2-1.9h0c2.3-5.1,6.7-9.5,11.8-11.8h0s0,0,0,0h0c.9-.4,1.6-1.3,1.9-2.2h0s0,0,0,0h0s0,0,0,0c0-.3.1-.6.1-.9,0-.7-.2-1.4-.6-2Z"/>
      <path class="st0" d="M222.3,13.1c-41.7,0-75.6,33.8-75.6,75.6s33.8,75.6,75.6,75.6,75.6-33.8,75.6-75.6S264.1,13.1,222.3,13.1ZM272.9,105h0c2.9,3.8,4.4,9,4.4,14.1,0,5.4-1.6,10.8-4.7,14.7h0c-.5.9-1.7,1.4-2.9,1.4-.7,0-1.4-.2-1.9-.6h0c-.9-.5-1.4-1.7-1.4-2.9,0-.7.2-1.4.6-1.9h0c2.2-2.9,3.4-6.9,3.4-10.7,0-2-.3-4-1-5.9h0c-1.7-5.3-6.9-10.1-12.3-11.4h0c-1.4-.4-3-.6-4.5-.6-4.3,0-8.8,1.6-11.9,4.3h0c-3.9,3.1-6.3,8.6-6.3,13.7,0,.7,0,1.3.1,1.9h0c0,.1,0,.3,0,.4,0,1.4-1.2,3-2.6,3.3h0s-.5.1-.5.1h0c-.3,0-.5.1-.8.1-1.3,0-2.8-.9-3.2-2.1h0c-2.2-5.2-7.6-9.5-13.2-10.4h0c-1-.2-2.1-.3-3.2-.3-4.7,0-9.7,2-12.8,5.3h0c-3.3,3.2-5.3,8.1-5.3,12.8,0,1.1.1,2.2.3,3.2h0c.9,5.6,5.2,11,10.4,13.2h0c1.2.4,2.1,1.9,2.1,3.3,0,.5,0,.9-.3,1.3h0s0,0,0,0h0s0,0,0,0c-.4,1.2-1.9,2-3.3,2-.5,0-.9,0-1.3-.3h0c-8.4-3.2-14.9-13.2-14.9-22.4,0-.8,0-1.6.2-2.4h0c0,0,0-.2,0-.3,0-.8-.4-1.7-1-2.3h0c-.6-.6-1.5-1-2.3-1,0,0-.2,0-.3,0h0c-.8.1-1.6.2-2.4.2-9.1,0-19.1-6.5-22.4-14.9h0c-.2-.4-.3-.8-.3-1.3,0-1.3.8-2.8,2-3.3h0s0,0,0,0h0s0,0,0,0c.4-.2.8-.3,1.3-.3,1.3,0,2.8.8,3.3,2.1h0c2.2,5.2,7.6,9.5,13.2,10.4h0c1,.2,2.1.3,3.2.3,4.7,0,9.7-2,12.8-5.3h0c3.3-3.2,5.3-8.1,5.3-12.8,0-1.1-.1-2.2-.3-3.2h0c-.9-5.6-5.2-11-10.4-13.2h0c-1.2-.4-2.1-1.9-2.1-3.2,0-.3,0-.6.1-.8h0s.1-.5.1-.5h0c.3-1.4,1.8-2.6,3.3-2.6.1,0,.3,0,.4,0h0c.6,0,1.3.1,1.9.1,5.1,0,10.5-2.5,13.7-6.3h0c2.8-3.1,4.3-7.6,4.3-11.9,0-1.5-.2-3.1-.6-4.5h0c-1.3-5.5-6-10.6-11.4-12.3h0c-1.8-.7-3.8-1-5.9-1-3.9,0-7.8,1.2-10.7,3.4h0c-.5.4-1.2.6-1.9.6-1.1,0-2.3-.5-2.9-1.4h0c-.4-.5-.6-1.2-.6-1.9,0-1.1.5-2.3,1.4-2.9h0c3.9-3.1,9.3-4.7,14.7-4.7,5.2,0,10.3,1.5,14.1,4.4h0c.5.4,1.2.6,1.9.6.3,0,.6,0,.8-.1h0c.9-.2,1.7-.9,2.1-1.7h0c3.4-8.2,13.3-14.3,22.3-14.3,1,0,1.9,0,2.9.2h0c1.6,0,3.1,1.7,3.1,3.3,0,.1,0,.3,0,.4h0,0s0,0,0,0h0c0,1.6-1.7,3.1-3.3,3.1-.2,0-.3,0-.5,0h0c-.6,0-1.3-.1-1.9-.1-5.1,0-10.5,2.5-13.7,6.3h0c-2.8,3.1-4.3,7.6-4.3,11.9,0,1.5.2,3.1.6,4.5h0c1.3,5.5,6,10.6,11.4,12.3h0c1.8.7,3.8,1,5.9,1,3.9,0,7.8-1.2,10.7-3.4h0c.5-.4,1.2-.6,2-.6.9,0,1.9.3,2.5,1h0l.4.4h0c.7.6,1,1.5,1,2.5,0,.7-.2,1.5-.6,2h0c-2.2,2.9-3.4,6.9-3.4,10.7,0,2,.3,4,1,5.9h0c1.7,5.3,6.9,10.1,12.3,11.4h0c1.4.4,3,.6,4.5.6,4.3,0,8.8-1.6,11.9-4.3h0c3.9-3.1,6.3-8.6,6.3-13.7,0-.7,0-1.3-.1-1.9h0c0-.1,0-.3,0-.5,0-1.6,1.5-3.3,3.1-3.3h0s0,0,0,0h0s0,0,0,0c.1,0,.3,0,.4,0,1.6,0,3.3,1.5,3.3,3.1h0c.1.9.2,1.9.2,2.9,0,9-6.2,18.9-14.3,22.3h0c-.8.4-1.5,1.2-1.7,2.1h0c0,.3-.1.5-.1.8,0,.7.2,1.3.6,1.9Z"/>
    </g>
  </g>
</svg>
